<?xml version="1.0" encoding="utf-8"?>
<!-- Generator: Adobe Illustrator 17.0.0, SVG Export Plug-In . SVG Version: 6.00 Build 0)  -->
<!DOCTYPE svg PUBLIC "-//W3C//DTD SVG 1.1//EN" "http://www.w3.org/Graphics/SVG/1.1/DTD/svg11.dtd">
<svg version="1.1" id="Layer_1" xmlns="http://www.w3.org/2000/svg" xmlns:xlink="http://www.w3.org/1999/xlink" x="0px" y="0px"
	 width="244px" height="224px" viewBox="0 0 244 224" enable-background="new 0 0 244 224" xml:space="preserve">
<g>
	<path fill="#002A5C" d="M118.949,154.034c-17.166-0.602-26.134-11.157-26.907-31.67l16.35-3.218
		c0.257,6.61,1.307,11.651,3.154,15.127c1.844,3.476,4.741,5.214,8.69,5.214c2.916,0,5.085-0.879,6.501-2.639
		c1.416-1.758,2.124-4.139,2.124-7.145c0-4.12-0.924-7.596-2.768-10.427c-1.847-2.832-4.744-6.007-8.69-9.528l-13.131-11.458
		c-4.036-3.605-7.061-7.316-9.076-11.136c-2.018-3.818-3.025-8.517-3.025-14.097c0-7.724,2.189-13.817,6.566-18.281
		c4.377-4.462,10.428-6.907,18.152-7.338V36.88h5.536v10.428c7.983,0.515,13.646,3.305,16.995,8.368
		c3.346,5.065,5.277,11.715,5.793,19.955l-16.221,2.832c-0.343-5.665-1.138-9.934-2.382-12.81c-1.245-2.874-3.627-4.313-7.145-4.313
		c-3.006,0-5.343,0.901-7.016,2.704c-1.674,1.802-2.51,4.164-2.51,7.081c0,3.347,0.686,6.137,2.06,8.368
		c1.372,2.233,3.518,4.679,6.437,7.338l13.003,11.458c4.892,4.377,8.71,8.927,11.458,13.646c2.746,4.72,4.121,10.256,4.121,16.607
		c0,7.039-2.04,12.854-6.115,17.444c-4.078,4.593-9.549,7.229-16.414,7.918v10.943h-5.536v-10.814H118.949z"/>
</g>
<circle fill="none" stroke="#D4CBB4" stroke-width="15" stroke-miterlimit="10" cx="114.907" cy="102.197" r="92.585"/>
<line fill="none" stroke="#D4CBB4" stroke-width="15" stroke-miterlimit="10" x1="40.006" y1="156.623" x2="190.809" y2="44.491"/>
<path fill="#D4CBB4" d="M194.557,211.207c2.2,3.38,1.243,7.903-2.137,10.103l0,0c-3.38,2.2-7.903,1.243-10.103-2.137l-21.051-32.348
	c-2.2-3.38-1.243-7.903,2.137-10.103l0,0c3.38-2.2,7.903-1.243,10.103,2.137L194.557,211.207z"/>
</svg>
