<?xml version="1.0" encoding="utf-8"?>
<!-- Generator: Adobe Illustrator 17.0.0, SVG Export Plug-In . SVG Version: 6.00 Build 0)  -->
<!DOCTYPE svg PUBLIC "-//W3C//DTD SVG 1.1//EN" "http://www.w3.org/Graphics/SVG/1.1/DTD/svg11.dtd">
<svg version="1.1" id="Layer_1" xmlns="http://www.w3.org/2000/svg" xmlns:xlink="http://www.w3.org/1999/xlink" x="0px" y="0px"
	 width="244px" height="224px" viewBox="0 0 244 224" enable-background="new 0 0 244 224" xml:space="preserve">
<g>
	<g>
		<defs>
			<circle id="SVGID_1_" cx="122.305" cy="108.878" r="108.846"/>
		</defs>
		<clipPath id="SVGID_2_">
			<use xlink:href="#SVGID_1_"  overflow="visible"/>
		</clipPath>
		<circle clip-path="url(#SVGID_2_)" fill="#D4CBB4" cx="61.876" cy="192.605" r="30.215"/>
		<circle clip-path="url(#SVGID_2_)" fill="#D4CBB4" cx="25.473" cy="189.693" r="30.215"/>
		<circle clip-path="url(#SVGID_2_)" fill="#D4CBB4" cx="85.174" cy="186.781" r="30.215"/>
		<circle clip-path="url(#SVGID_2_)" fill="#D4CBB4" cx="106.288" cy="207.167" r="30.215"/>
		<circle clip-path="url(#SVGID_2_)" fill="#D4CBB4" cx="120.849" cy="186.781" r="38.223"/>
		<circle clip-path="url(#SVGID_2_)" fill="#D4CBB4" cx="143.055" cy="172.583" r="23.462"/>
		<circle clip-path="url(#SVGID_2_)" fill="#D4CBB4" cx="97.351" cy="165.303" r="19.093"/>
		<circle clip-path="url(#SVGID_2_)" fill="#D4CBB4" cx="136.503" cy="149.285" r="13.997"/>
		<circle clip-path="url(#SVGID_2_)" fill="#D4CBB4" cx="108.836" cy="148.557" r="13.997"/>
		<circle clip-path="url(#SVGID_2_)" fill="#D4CBB4" cx="122.305" cy="137.436" r="9.264"/>
		<circle clip-path="url(#SVGID_2_)" fill="#D4CBB4" cx="165.261" cy="204.982" r="30.215"/>
		<circle clip-path="url(#SVGID_2_)" fill="#D4CBB4" cx="169.63" cy="189.693" r="30.215"/>
		<circle clip-path="url(#SVGID_2_)" fill="#D4CBB4" cx="205.305" cy="187.509" r="30.215"/>
	</g>
	<g id="g5533" transform="translate(-667.17601,-549.11302)">
		<g id="g5491" transform="translate(-16.130794,410.78331)">
			<path id="path5297" inkscape:connector-curvature="0" fill="#D4CBB4" d="M805.25,138.33
				c-61.137,0-110.703,49.561-110.703,110.698s49.565,110.698,110.703,110.698s110.698-49.561,110.698-110.698
				S866.388,138.33,805.25,138.33L805.25,138.33z M805.25,143.816c58.105,0,105.207,47.106,105.207,105.212
				s-47.102,105.207-105.207,105.207c-58.106,0-105.212-47.102-105.212-105.207S747.145,143.816,805.25,143.816L805.25,143.816z"/>
			<g id="g5299" transform="matrix(-0.18587754,0,0,0.18587754,457.33327,-244.22076)">
				<path id="path5301" inkscape:connector-curvature="0" fill="#D4CBB4" d="M-1871.726,2125.773c0,0-6.06,35.441-63.644,114.889
					c-20.059,27.676-33.287,59.755-41.534,93.615c32.947,6.712,68.33,10.345,105.177,10.345c36.836,0,72.218-3.638,105.152-10.345
					c-8.247-33.86-21.474-65.939-41.534-93.615C-1865.691,2161.214-1871.726,2125.773-1871.726,2125.773z M-1979.641,2346.473
					c-30.003,145.054,25.356,316.597,25.356,316.597h165.094c0,0,55.359-171.543,25.356-316.597
					c-33.902,6.626-70.184,10.244-107.891,10.244C-1909.45,2356.717-1945.722,2353.105-1979.641,2346.473z M-1871.726,2389.427
					c40.116,0,72.62,32.53,72.62,72.646c0,40.116-32.505,72.62-72.62,72.62c-40.115,0-72.645-32.504-72.645-72.62
					C-1944.371,2421.957-1911.841,2389.427-1871.726,2389.427z"/>
				<path id="path5303" sodipodi:nodetypes="cccc" inkscape:connector-curvature="0" fill="#D4CBB4" d="M-1917.602,2689.678
					l-14.99-30.714h121.709l-14.99,30.714H-1917.602z"/>
				<path id="path5305" inkscape:connector-curvature="0" fill="#D4CBB4" d="M-1995.413,2532.157
					c-26.574,21.767-66.063,62.797-84.056,124.955c0,0,44.771-23.057,103.58-24.063
					C-1984.399,2599.85-1991.045,2566.146-1995.413,2532.157z"/>
				<path id="path5307" inkscape:connector-curvature="0" fill="#D4CBB4" d="M-1748.038,2532.182
					c-4.392,33.97-11.073,67.674-19.499,100.867c58.784,1.018,103.529,24.063,103.529,24.063
					C-1681.994,2594.976-1721.464,2553.955-1748.038,2532.182z"/>
			</g>
		</g>
	</g>
</g>
<g>
	<g enable-background="new    ">
		<path fill="#002A5C" d="M94.032,163.275c-0.84-1.128-1.26-2.725-1.26-4.788v-6.937c0-2.127,0.416-3.744,1.248-4.848
			s2.264-1.656,4.296-1.656c1.904,0,3.256,0.48,4.056,1.44c0.8,0.96,1.2,2.344,1.2,4.151v1.633h-3.408v-1.681
			c0-0.688-0.032-1.228-0.096-1.62c-0.064-0.392-0.228-0.711-0.492-0.96c-0.264-0.247-0.676-0.372-1.236-0.372
			c-0.576,0-1.008,0.133-1.296,0.396c-0.288,0.264-0.476,0.616-0.564,1.056c-0.088,0.44-0.132,1.013-0.132,1.716v8.425
			c0,1.104,0.144,1.899,0.432,2.388s0.808,0.732,1.56,0.732c0.543,0,0.948-0.128,1.212-0.385c0.264-0.256,0.432-0.596,0.504-1.02
			c0.072-0.424,0.108-0.988,0.108-1.692v-1.752h3.408v1.561c0,1.872-0.393,3.323-1.176,4.355c-0.784,1.032-2.144,1.548-4.08,1.548
			C96.3,164.967,94.872,164.403,94.032,163.275z"/>
		<path fill="#002A5C" d="M108.948,145.263h3.792l3.888,19.44h-3.288l-0.768-4.488h-3.384l-0.792,4.488h-3.336L108.948,145.263z
			 M112.188,157.959l-1.32-8.16l-1.32,8.16H112.188z"/>
		<path fill="#002A5C" d="M119.52,163.479c-0.873-0.992-1.348-2.473-1.428-4.44l3.048-0.6c0.048,1.231,0.244,2.172,0.588,2.819
			c0.344,0.648,0.884,0.973,1.62,0.973c0.543,0,0.947-0.164,1.212-0.492c0.264-0.328,0.396-0.771,0.396-1.332
			c0-0.769-0.172-1.416-0.516-1.944c-0.345-0.527-0.885-1.119-1.62-1.775l-2.448-2.137c-0.752-0.672-1.316-1.363-1.692-2.075
			s-0.564-1.588-0.564-2.629c0-1.535,0.448-2.72,1.344-3.552c0.896-0.832,2.136-1.248,3.719-1.248c1.664,0,2.856,0.477,3.576,1.429
			c0.721,0.952,1.136,2.235,1.248,3.852l-3.048,0.528c-0.048-1.04-0.188-1.832-0.42-2.376c-0.232-0.544-0.684-0.816-1.356-0.816
			c-0.544,0-0.971,0.168-1.283,0.504s-0.468,0.776-0.468,1.32c0,0.624,0.128,1.144,0.384,1.56c0.256,0.416,0.656,0.872,1.199,1.368
			l2.425,2.136c0.912,0.816,1.623,1.665,2.136,2.544c0.512,0.881,0.768,1.912,0.768,3.097c0,0.928-0.204,1.752-0.611,2.472
			c-0.408,0.72-0.98,1.284-1.717,1.692c-0.735,0.407-1.584,0.611-2.544,0.611C121.707,164.967,120.391,164.472,119.52,163.479z"/>
		<path fill="#002A5C" d="M130.427,145.263h8.16v2.496h-4.632v5.593h3.648v2.472h-3.648v6.456h4.68v2.424h-8.208V145.263z"/>
		<path fill="#002A5C" d="M141.647,163.479c-0.873-0.992-1.349-2.473-1.429-4.44l3.049-0.6c0.048,1.231,0.243,2.172,0.588,2.819
			c0.344,0.648,0.884,0.973,1.62,0.973c0.543,0,0.947-0.164,1.212-0.492c0.264-0.328,0.396-0.771,0.396-1.332
			c0-0.769-0.172-1.416-0.516-1.944c-0.345-0.527-0.885-1.119-1.62-1.775l-2.448-2.137c-0.752-0.672-1.316-1.363-1.692-2.075
			s-0.563-1.588-0.563-2.629c0-1.535,0.447-2.72,1.344-3.552s2.136-1.248,3.72-1.248c1.664,0,2.856,0.477,3.576,1.429
			c0.721,0.952,1.136,2.235,1.248,3.852l-3.048,0.528c-0.048-1.04-0.188-1.832-0.42-2.376c-0.232-0.544-0.684-0.816-1.356-0.816
			c-0.544,0-0.972,0.168-1.283,0.504c-0.313,0.336-0.469,0.776-0.469,1.32c0,0.624,0.128,1.144,0.385,1.56
			c0.256,0.416,0.655,0.872,1.199,1.368l2.425,2.136c0.912,0.816,1.623,1.665,2.136,2.544c0.512,0.881,0.768,1.912,0.768,3.097
			c0,0.928-0.204,1.752-0.611,2.472c-0.408,0.72-0.98,1.284-1.717,1.692c-0.735,0.407-1.584,0.611-2.544,0.611
			C143.835,164.967,142.519,164.472,141.647,163.479z"/>
	</g>
</g>
</svg>
