<?xml version="1.0" encoding="utf-8"?>
<!-- Generator: Adobe Illustrator 17.0.0, SVG Export Plug-In . SVG Version: 6.00 Build 0)  -->
<!DOCTYPE svg PUBLIC "-//W3C//DTD SVG 1.1//EN" "http://www.w3.org/Graphics/SVG/1.1/DTD/svg11.dtd">
<svg version="1.1" id="Layer_1" xmlns="http://www.w3.org/2000/svg" xmlns:xlink="http://www.w3.org/1999/xlink" x="0px" y="0px"
	 width="244px" height="224px" viewBox="0 0 244 224" enable-background="new 0 0 244 224" xml:space="preserve">
<g>
	<path fill="#D3CAB4" d="M81.567,40.551c12.802-8.465,16.356-24.886,8.093-37.384L87.567,0L84.4,2.096
		C73.258,9.46,66.031,21.301,64.569,34.577l-0.98,8.943c-3.315,2.468-6.448,5.127-9.395,7.96
		c0.775-10.333-4.325-20.306-13.964-25.452l-3.349-1.789l-1.789,3.349c-6.293,11.784-7.01,25.638-1.971,38.007l3.255,8.936
		c-1.417,2.529-2.719,5.115-3.912,7.759c-3.11-8.412-10.311-14.959-19.82-16.831l-3.725-0.733l-0.737,3.725
		c-2.579,13.106,0.775,26.564,9.202,36.928l0.418,0.441l6.574,5.856c-0.372,3.281-0.585,6.596-0.623,9.931
		c-0.008,0.444-0.008,0.892-0.008,1.337c-5.134-4.538-11.731-6.851-18.688-6.551l-3.794,0.167l0.167,3.794
		c0.049,1.109,0.141,2.21,0.27,3.304c1.815,15.308,12.357,28.554,27.514,34.57l1.242,0.494c1.31,3.361,2.795,6.634,4.451,9.809
		c-8.499-2.894-18.107-1.428-25.547,4.762l-2.043,1.705l1.439,3.995l0.429,0.513c8.207,9.855,20.332,15.282,34.137,15.282h0.023
		l0.513-0.034l9.54-1.306c2.29,2.237,4.686,4.367,7.193,6.376c-9.566,0.505-18.627,5.738-23.143,14.458l-1.77,3.418l3.422,1.713
		c6.456,3.338,13.508,5.017,20.575,5.017c5.909,0,11.833-1.177,17.435-3.539l0.144-0.065l11.237-5.294
		c5.081,1.849,10.371,3.304,15.84,4.318l1.386-7.466c-43.619-8.108-74.897-46.244-74.369-90.683
		c0.346-29.253,14.868-56.759,38.85-73.583l-0.023-0.034L81.567,40.551"/>
	<path fill="#D3CAB4" d="M162.696,40.551l11.393,7.531l-0.023,0.034c23.982,16.823,38.504,44.33,38.85,73.583
		c0.528,44.44-30.749,82.575-74.369,90.683l1.386,7.466c5.469-1.014,10.759-2.468,15.84-4.318l11.237,5.294l0.144,0.065
		c5.601,2.362,11.526,3.539,17.435,3.539c7.067,0,14.12-1.679,20.575-5.017l3.422-1.713l-1.77-3.418
		c-4.515-8.719-13.576-13.952-23.143-14.458c2.506-2.009,4.903-4.139,7.193-6.376l9.54,1.306l0.513,0.034h0.023
		c13.804,0,25.93-5.427,34.137-15.282l0.429-0.513l1.439-3.995l-2.043-1.705c-7.44-6.19-17.048-7.656-25.547-4.762
		c1.656-3.175,3.141-6.448,4.451-9.809l1.242-0.494c15.156-6.015,25.698-19.262,27.514-34.57c0.129-1.094,0.22-2.195,0.27-3.304
		L243,116.56l-3.794-0.167c-6.957-0.3-13.554,2.013-18.688,6.551c0-0.444,0-0.892-0.008-1.337c-0.038-3.334-0.251-6.65-0.623-9.931
		l6.574-5.856l0.418-0.441c8.427-10.364,11.78-23.822,9.202-36.928l-0.737-3.725l-3.725,0.733
		c-9.509,1.872-16.71,8.419-19.82,16.831c-1.192-2.643-2.495-5.229-3.912-7.759l3.255-8.936c5.039-12.369,4.322-26.223-1.971-38.007
		l-1.789-3.349l-3.35,1.789c-9.638,5.146-14.739,15.118-13.964,25.452c-2.947-2.833-6.08-5.491-9.395-7.96l-0.98-8.943
		c-1.462-13.276-8.689-25.117-19.831-32.481L156.695,0l-2.092,3.167C146.339,15.665,149.894,32.086,162.696,40.551"/>
</g>
<g>
	<g enable-background="new    ">
		<path fill="#002A5C" d="M91.94,147.707h3.872l2.257,5.831l2.414-5.831h3.433l-4.441,9.234v6.762H95.96v-6.762L91.94,147.707z"/>
		<path fill="#002A5C" d="M104.761,147.707h9.727v2.742h-6.211v3.715h4.828v2.742h-4.828v3.938h6.211v2.859h-9.727V147.707z"/>
		<path fill="#002A5C" d="M119.034,147.707h3.539l4.57,15.996h-3.596l-0.798-3.305h-4.505l-0.785,3.305h-3.23L119.034,147.707z
			 M122.089,157.656l-1.617-6.554l-1.551,6.554H122.089z"/>
		<path fill="#002A5C" d="M128.479,147.707h5.027c0.977,0,1.725,0.045,2.244,0.135s1.045,0.332,1.576,0.727s0.947,0.934,1.248,1.617
			s0.451,1.451,0.451,2.303c0,2-0.75,3.406-2.25,4.219l2.941,6.996h-3.827l-2.14-6.328h-1.756v6.328h-3.516v-15.997H128.479z
			 M131.995,150.297v4.488h1.547c1.375,0,2.063-0.77,2.063-2.309c0-0.531-0.102-0.967-0.305-1.307s-0.439-0.57-0.709-0.691
			s-0.666-0.182-1.189-0.182h-1.407V150.297z"/>
		<path fill="#002A5C" d="M151.343,151.188l-2.906,1.113c-0.414-1.32-1.172-1.98-2.273-1.98c-0.516,0-0.924,0.146-1.225,0.439
			s-0.451,0.635-0.451,1.025c0,0.453,0.178,0.814,0.533,1.084s1.1,0.623,2.232,1.061c1.031,0.383,1.842,0.762,2.432,1.137
			s1.066,0.885,1.43,1.529s0.545,1.393,0.545,2.244c0,1.492-0.514,2.717-1.541,3.674s-2.404,1.436-4.131,1.436
			c-2.898,0-4.75-1.465-5.555-4.395l3.07-0.879c0.375,1.609,1.23,2.414,2.566,2.414c0.609,0,1.104-0.158,1.482-0.475
			s0.568-0.732,0.568-1.248c0-0.391-0.133-0.74-0.398-1.049s-0.875-0.635-1.828-0.979c-1.227-0.438-2.141-0.834-2.742-1.189
			s-1.098-0.863-1.488-1.523s-0.586-1.412-0.586-2.256c0-1.438,0.463-2.615,1.389-3.533s2.15-1.377,3.674-1.377
			C148.921,147.461,150.655,148.703,151.343,151.188z"/>
	</g>
</g>
</svg>
